HIERARCHY
ROOT Hips
{
	OFFSET 0.000000 0.000000 0.000000
	CHANNELS 6 Xposition Yposition Zposition Zrotation Yrotation Xrotation 
	JOINT LHipJoint
	{
		OFFSET 0.000000 0.000000 0.000000
		CHANNELS 3 Zrotation Yrotation Xrotation
		JOINT LeftUpLeg
		{
			OFFSET 1.363060 -1.794630 0.839290
			CHANNELS 3 Zrotation Yrotation Xrotation
			JOINT LeftLeg
			{
				OFFSET 2.448110 -6.726130 0.000000
				CHANNELS 3 Zrotation Yrotation Xrotation
				JOINT LeftFoot
				{
					OFFSET 2.562200 -7.039590 0.000000
					CHANNELS 3 Zrotation Yrotation Xrotation
					JOINT LeftToeBase
					{
						OFFSET 0.157640 -0.433110 2.322550
						CHANNELS 3 Zrotation Yrotation Xrotation
						End Site
						{
							OFFSET 0.000000 0.000000 0.000000
						}
					}
				}
			}
		}
	}
	JOINT RHipJoint
	{
		OFFSET 0.000000 0.000000 0.000000
		CHANNELS 3 Zrotation Yrotation Xrotation
		JOINT RightUpLeg
		{
			OFFSET -1.305520 -1.794630 0.839290
			CHANNELS 3 Zrotation Yrotation Xrotation
			JOINT RightLeg
			{
				OFFSET -2.542530 -6.985550 0.000000
				CHANNELS 3 Zrotation Yrotation Xrotation
				JOINT RightFoot
				{
					OFFSET -2.568260 -7.056230 0.000000
					CHANNELS 3 Zrotation Yrotation Xrotation
					JOINT RightToeBase
					{
						OFFSET -0.164730 -0.452590 2.363150
						CHANNELS 3 Zrotation Yrotation Xrotation
						End Site
						{
							OFFSET 0.000000 0.000000 0.000000
						}
					}
				}
			}
		}
	}
	JOINT LowerBack
	{
		OFFSET 0.000000 0.000000 0.000000
		CHANNELS 3 Zrotation Yrotation Xrotation
		JOINT Spine
		{
			OFFSET 0.028270 2.035590 -0.193380
			CHANNELS 3 Zrotation Yrotation Xrotation
			JOINT Spine1
			{
				OFFSET 0.056720 2.048850 -0.042750
				CHANNELS 3 Zrotation Yrotation Xrotation
				JOINT Neck
				{
					OFFSET 0.000000 0.000000 0.000000
					CHANNELS 3 Zrotation Yrotation Xrotation
					JOINT Neck1
					{
						OFFSET -0.054170 1.746240 0.172020
						CHANNELS 3 Zrotation Yrotation Xrotation
						JOINT Head
						{
							OFFSET 0.104070 1.761360 -0.123970
							CHANNELS 3 Zrotation Yrotation Xrotation
							End Site
							{
								OFFSET 0.000000 0.000000 0.000000
							}
						}
					}
				}
				JOINT LeftShoulder
				{
					OFFSET 0.000000 0.000000 0.000000
					CHANNELS 3 Zrotation Yrotation Xrotation
					JOINT LeftArm
					{
						OFFSET 3.362410 1.200890 -0.311210
						CHANNELS 3 Zrotation Yrotation Xrotation
						JOINT LeftForeArm
						{
							OFFSET 4.983000 -0.000000 -0.000000
							CHANNELS 3 Zrotation Yrotation Xrotation
							JOINT LeftHand
							{
								OFFSET 3.483560 -0.000000 -0.000000
								CHANNELS 3 Zrotation Yrotation Xrotation
								JOINT LeftFingerBase
								{
									OFFSET 0.000000 0.000000 0.000000
									CHANNELS 3 Zrotation Yrotation Xrotation
									JOINT LeftHandIndex1
									{
										OFFSET 0.715260 -0.000000 -0.000000
										CHANNELS 3 Zrotation Yrotation Xrotation
										End Site
										{
											OFFSET 0.000000 0.000000 0.000000
										}
									}
								}
								JOINT LThumb
								{
									OFFSET 0.000000 0.000000 0.000000
									CHANNELS 3 Zrotation Yrotation Xrotation
									End Site
									{
										OFFSET 0.000000 0.000000 0.000000
									}
								}
							}
						}
					}
				}
				JOINT RightShoulder
				{
					OFFSET 0.000000 0.000000 0.000000
					CHANNELS 3 Zrotation Yrotation Xrotation
					JOINT RightArm
					{
						OFFSET -3.136600 1.374050 -0.404650
						CHANNELS 3 Zrotation Yrotation Xrotation
						JOINT RightForeArm
						{
							OFFSET -5.241900 -0.000000 -0.000000
							CHANNELS 3 Zrotation Yrotation Xrotation
							JOINT RightHand
							{
								OFFSET -3.444170 -0.000000 -0.000000
								CHANNELS 3 Zrotation Yrotation Xrotation
								JOINT RightFingerBase
								{
									OFFSET 0.000000 0.000000 0.000000
									CHANNELS 3 Zrotation Yrotation Xrotation
									JOINT RightHandIndex1
									{
										OFFSET -0.622530 -0.000000 -0.000000
										CHANNELS 3 Zrotation Yrotation Xrotation
										End Site
										{
											OFFSET 0.000000 0.000000 0.000000
										}
									}
								}
								JOINT RThumb
								{
									OFFSET 0.000000 0.000000 0.000000
									CHANNELS 3 Zrotation Yrotation Xrotation
									End Site
									{
										OFFSET 0.000000 0.000000 0.000000
									}
								}
							}
						}
					}
				}
			}
		}
	}
}
MOTION
Frames: 8
Frame Time: 0.008333
2.944754 18.144600 6.011211 -76.123569 -80.742600 82.861200 -0.935922 -1.764509 -1.674285 -3.378382 -8.010742 -22.979515 8.963865 17.469129 56.384050 -0.045531 2.150577 6.557570 0.641700 -5.124700 -14.264700 1.171788 1.192106 -1.102772 32.337866 2.327549 -9.249287 0.097051 -5.343782 13.271651 2.376629 -13.961097 -3.065119 -1.085100 -6.620600 18.596100 5.452801 0.483996 1.464196 1.392552 0.781323 -5.508742 3.172349 0.261970 -2.535250 -6.986836 -5.384212 -7.698894 2.515055 -6.739828 8.790886 1.617200 -3.693600 6.418500 4.573541 3.220493 -0.169366 -85.250360 -21.535498 49.230105 79.822114 -62.741282 -42.454995 -0.336532 2.023483 17.119486 13.993591 16.939307 3.945100 -7.125000 0.000000 0.000000 -11.749200 45.127200 -0.037400 -2.626304 -3.700981 -1.513339 74.768285 22.682822 47.993713 -78.946524 61.428900 -52.375545 -0.621059 0.333311 11.668948 -13.881843 -14.304650 3.375200 7.125000 0.000000 0.000000 13.192700 -44.501200 0.165400 
2.808502 18.147911 6.001478 -78.112800 -80.746434 84.878338 -0.929594 -1.792031 -1.712088 -3.217717 -7.957967 -23.701457 8.716432 17.315313 55.564557 -0.081421 2.229832 5.727358 0.643300 -5.130900 -14.282400 1.180096 1.174564 -1.070637 32.522930 2.330467 -8.563044 0.123437 -5.217894 12.936415 2.350267 -13.835092 -3.248210 -1.048100 -6.510200 18.272200 5.609271 0.551576 1.510035 1.367685 0.876773 -5.526628 3.029273 0.298304 -2.597842 -6.921572 -5.345081 -7.702583 2.564203 -6.695204 8.737078 1.629900 -3.664000 6.396400 4.570015 3.203461 -0.156087 -84.831087 -20.767595 48.905689 79.060844 -62.764231 -41.918651 -0.350265 2.008118 16.694249 13.734723 17.002241 3.892200 -7.125000 0.000000 0.000000 -12.010900 45.174700 -0.052600 -2.630363 -3.693452 -1.524390 75.151417 22.237021 48.213313 -78.115933 61.346563 -51.677139 -0.611581 0.329037 11.428480 -13.600061 -14.571369 3.362600 7.125000 0.000000 0.000000 13.512400 -44.734100 0.090400 
2.672753 18.149415 5.992348 -80.089058 -80.732309 86.897904 -0.924385 -1.819269 -1.749382 -3.038750 -7.889587 -24.399270 8.430444 17.131204 54.608552 -0.116612 2.337612 4.990885 0.647900 -5.149200 -14.334700 1.189118 1.158184 -1.039852 32.710522 2.355012 -7.907325 0.146603 -5.103564 12.633082 2.328410 -13.729663 -3.448121 -1.008500 -6.389700 17.919500 5.769815 0.616932 1.551515 1.345012 0.968529 -5.545167 2.891487 0.332789 -2.657821 -6.858890 -5.304693 -7.719923 2.609457 -6.647037 8.678998 1.641400 -3.632900 6.375400 4.568168 3.186445 -0.141154 -84.445792 -19.973226 48.567970 78.165470 -62.782453 -41.288681 -0.363155 1.993564 16.238129 13.476667 17.064040 3.837900 -7.125000 0.000000 0.000000 -12.272400 45.219100 -0.067400 -2.634696 -3.686332 -1.536804 75.527569 21.779560 48.446102 -77.189384 61.247022 -50.897313 -0.602678 0.324515 11.125431 -13.368979 -14.857646 3.365700 7.125000 0.000000 0.000000 13.795100 -44.991600 0.002900 
2.537605 18.149114 5.983920 -82.057501 -80.710691 88.924363 -0.920606 -1.846385 -1.785901 -2.855542 -7.809306 -25.070136 8.109155 16.916331 53.523485 -0.153321 2.478810 4.346267 0.653300 -5.170100 -14.394400 1.199367 1.143050 -1.009913 32.887175 2.398160 -7.284279 0.166610 -5.001536 12.363932 2.311183 -13.644679 -3.662040 -0.965100 -6.254800 17.525500 5.925161 0.680167 1.590021 1.322876 1.057353 -5.566279 2.759733 0.365742 -2.721790 -6.804476 -5.262199 -7.741139 2.655950 -6.594431 8.617116 1.655300 -3.599900 6.354100 4.567706 3.169243 -0.124600 -84.096703 -19.147515 48.218601 77.118881 -62.790468 -40.555394 -0.373719 1.980505 15.752329 13.239310 17.122420 3.786600 -7.125000 0.000000 0.000000 -12.515900 45.259500 -0.081500 -2.639632 -3.679077 -1.550722 75.896877 21.301109 48.695749 -76.158056 61.127115 -50.028026 -0.594310 0.319322 10.769942 -13.183820 -15.189606 3.389100 7.125000 0.000000 0.000000 14.053200 -45.298800 -0.105800 
2.403361 18.147208 5.976295 -83.936304 -80.685010 90.875386 -0.918910 -1.873896 -1.821916 -2.672730 -7.729291 -25.709371 7.753325 16.668589 52.309308 -0.189461 2.634764 3.783626 0.667200 -5.223800 -14.548100 1.210747 1.129329 -0.980978 33.048018 2.450697 -6.700679 0.183541 -4.912920 12.131653 2.299802 -13.586714 -3.886966 -0.914900 -6.094400 17.058600 6.071177 0.735489 1.629545 1.301588 1.135873 -5.588829 2.635071 0.393647 -2.789018 -6.756617 -5.216805 -7.769301 2.700835 -6.535874 8.548392 1.670000 -3.564300 6.331800 4.569029 3.151526 -0.106375 -83.786724 -18.294855 47.849967 75.907239 -62.781081 -39.711969 -0.381194 1.969382 15.244772 13.030053 17.177389 3.740200 -7.125000 0.000000 0.000000 -12.734800 45.295900 -0.094600 -2.645481 -3.671611 -1.566112 76.261273 20.812321 48.966772 -75.001710 60.981205 -49.052505 -0.586323 0.314341 10.371387 -13.039538 -15.536263 3.425100 7.125000 0.000000 0.000000 14.282300 -45.624900 -0.224900 
2.270019 18.143797 5.969272 -85.760730 -80.662483 92.785787 -0.919443 -1.901833 -1.857420 -2.495920 -7.650328 -26.310697 7.364411 16.385592 50.965317 -0.227316 2.811762 3.291357 0.685500 -5.293400 -14.747200 1.223725 1.117158 -0.953123 33.185293 2.520215 -6.152412 0.197236 -4.838700 11.938812 2.292915 -13.548689 -4.126633 -0.862300 -5.921400 16.556500 6.203183 0.783856 1.666896 1.279770 1.205218 -5.611908 2.515891 0.417133 -2.855961 -6.709536 -5.166270 -7.800132 2.739882 -6.469242 8.465129 1.683300 -3.525000 6.303900 4.572467 3.133466 -0.086335 -83.519216 -17.422672 47.462237 74.509968 -62.745018 -38.746774 -0.385357 1.961261 14.719792 12.857232 17.244268 3.704500 -7.125000 0.000000 0.000000 -12.925600 45.343700 -0.111500 -2.652545 -3.664381 -1.582827 76.624768 20.314008 49.257522 -73.710202 60.804707 -47.962200 -0.578688 0.309844 9.938517 -12.935576 -15.890071 3.472700 7.125000 0.000000 0.000000 14.480700 -45.963100 -0.351500 
2.136276 18.138881 5.963352 -87.659266 -80.638475 94.779174 -0.922135 -1.929622 -1.892507 -2.323005 -7.560359 -26.854891 6.942276 16.063096 49.484024 -0.270483 3.025371 2.865565 0.701600 -5.353900 -14.920900 1.238294 1.106979 -0.927420 33.303090 2.602570 -5.629760 0.207851 -4.779779 11.788383 2.285315 -13.508100 -4.377467 -0.809500 -5.741800 16.037000 6.328218 0.832130 1.685571 1.258279 1.272328 -5.629186 2.403964 0.440522 -2.897085 -6.671541 -5.113188 -7.836095 2.776837 -6.396393 8.363155 1.698200 -3.482800 6.268800 4.578785 3.117414 -0.063763 -83.301308 -16.545868 47.057303 72.918618 -62.671546 -37.656124 -0.384285 1.956522 14.172584 12.744869 17.305383 3.681600 -7.125000 0.000000 0.000000 -13.062800 45.387100 -0.127000 -2.661894 -3.657951 -1.599754 76.982600 19.820871 49.563486 -72.271936 60.592232 -46.747267 -0.571311 0.305962 9.475678 -12.871367 -16.246456 3.531400 7.125000 0.000000 0.000000 14.647200 -46.308800 -0.483300 
2.002232 18.132660 5.957934 -89.590741 -80.603686 96.812103 -0.927208 -1.956991 -1.926901 -2.139235 -7.467013 -27.337023 6.490610 15.698754 47.868386 -0.319187 3.273074 2.516721 0.713200 -5.396900 -15.044200 1.254057 1.098688 -0.903724 33.414195 2.699144 -5.128894 0.215631 -4.734777 11.676793 2.277883 -13.468956 -4.642152 -0.757700 -5.559300 15.510800 6.448726 0.879542 1.694495 1.238456 1.336669 -5.642234 2.301616 0.463401 -2.921809 -6.637359 -5.057014 -7.870585 2.807362 -6.317758 8.239840 1.712000 -3.438000 6.224100 4.588718 3.102314 -0.038909 -83.136009 -15.662506 46.638818 71.135932 -62.547604 -36.440297 -0.380246 1.954318 13.612037 12.653269 17.362895 3.661800 -7.125000 0.000000 0.000000 -13.181700 45.425600 -0.140900 -2.672927 -3.651921 -1.617093 77.335959 19.330780 49.877811 -70.680230 60.337332 -45.402294 -0.564131 0.302686 8.985682 -12.843244 -16.609857 3.601800 7.125000 0.000000 0.000000 14.786400 -46.666300 -0.621300 
